<svg width="1440" height="150" viewBox="0 0 1440 150" fill="none" xmlns="http://www.w3.org/2000/svg">
<path d="M1440 136H0V138H1440V136Z" fill="#919191" mask="url(#path-1-inside-1_729_237)"/>
<g filter="url(#filter0_d_729_237)">
<path d="M202.669 20.048C208.216 17.744 213.549 16.592 218.669 16.592C222.936 16.592 227.331 18.1707 231.853 21.328C234.328 23.0347 237.101 26.3627 240.173 31.312C242.221 34.7253 244.824 40.912 247.981 49.872L263.597 94.16C267.181 104.059 270.808 111.909 274.477 117.712C278.232 123.6 281.645 127.995 284.717 130.896C287.789 133.883 290.989 135.973 294.317 137.168C297.645 138.363 300.376 138.96 302.509 138.96C304.728 138.96 306.691 138.789 308.397 138.448L308.525 139.728C304.429 141.093 300.419 141.776 296.493 141.776C292.568 141.776 288.643 140.752 284.717 138.704C280.792 136.741 277.123 133.968 273.709 130.384C266.371 122.96 260.141 111.653 255.021 96.464L250.029 81.872H214.957L206.125 104.656C205.699 105.68 205.485 106.704 205.485 107.728C205.485 108.752 205.912 109.861 206.765 111.056C207.704 112.165 209.112 112.72 210.989 112.72H212.013V114H186.285V112.72H187.437C189.485 112.72 191.491 112.123 193.453 110.928C195.416 109.648 197.037 107.771 198.317 105.296L230.061 29.264C225.453 22.6933 219.736 19.408 212.909 19.408C209.837 19.408 206.552 20.048 203.053 21.328L202.669 20.048ZM216.365 78.032H248.749L238.637 48.208C236.675 42.4907 234.883 38.0107 233.261 34.768L216.365 78.032Z" fill="#001017"/>
</g>
<g filter="url(#filter1_d_729_237)">
<path d="M182.87 121.752C182.614 120.557 182.486 118.253 182.486 114.84C182.486 111.427 183.126 107.8 184.406 103.96H185.558C185.473 104.899 185.43 105.837 185.43 106.776C185.43 111.981 187.009 116.333 190.166 119.832C193.324 123.245 197.505 124.952 202.71 124.952C208.086 124.952 212.481 123.331 215.894 120.088C219.393 116.845 221.142 112.792 221.142 107.928C221.142 102.979 219.478 98.968 216.15 95.896L191.574 73.112C186.966 68.8453 184.662 63.6827 184.662 57.624C184.662 51.5653 186.668 46.4027 190.678 42.136C194.774 37.784 200.278 35.608 207.19 35.608C210.433 35.608 214.102 36.0347 218.198 36.888H223.19V52.632H222.038C222.038 48.6213 220.63 45.4213 217.814 43.032C215.084 40.6427 211.542 39.448 207.19 39.448C202.838 39.448 199.169 40.8987 196.182 43.8C193.281 46.7013 191.83 50.328 191.83 54.68C191.83 59.032 193.537 62.7867 196.95 65.944L222.166 89.24C226.433 93.1653 228.566 98.5413 228.566 105.368C228.566 112.195 226.39 117.827 222.038 122.264C217.686 126.616 211.884 128.792 204.63 128.792C200.876 128.792 196.865 128.195 192.598 127C188.417 125.891 185.174 124.141 182.87 121.752Z" fill="#155260"/>
</g>
<path d="M766.164 58.8829C770.404 58.8829 772.524 60.4989 772.524 63.7309C772.524 65.1549 772.02 66.3229 771.012 67.2349C770.02 68.1469 768.836 68.6029 767.46 68.6029C766.084 68.6029 764.916 68.3789 763.956 67.9309V70.2589C763.956 71.9709 764.004 73.1389 764.1 73.7629C764.212 74.3869 764.364 74.7789 764.556 74.9389C764.924 75.2429 765.508 75.3949 766.308 75.3949L766.356 75.6829H759.876L759.924 75.3949C760.724 75.3949 761.308 75.2429 761.676 74.9389C762.076 74.6029 762.276 73.0429 762.276 70.2589V64.3069C762.276 62.5949 762.22 61.4269 762.108 60.8029C762.012 60.1789 761.868 59.7869 761.676 59.6269C761.308 59.3229 760.724 59.1709 759.924 59.1709L759.876 58.8829H766.164ZM763.956 59.4349V67.3309C764.788 67.7789 765.764 68.0029 766.884 68.0029C768.02 68.0029 768.932 67.6509 769.62 66.9469C770.308 66.2269 770.652 65.1549 770.652 63.7309C770.652 61.9549 770.076 60.7709 768.924 60.1789C767.98 59.6829 766.844 59.4349 765.516 59.4349H763.956ZM773.488 70.0189C773.488 68.3389 773.968 66.9309 774.928 65.7949C775.888 64.6589 777.192 64.0909 778.84 64.0909C780.488 64.0909 781.816 64.6589 782.824 65.7949C783.832 66.9309 784.336 68.3389 784.336 70.0189C784.336 71.6989 783.848 73.1069 782.872 74.2429C781.912 75.3629 780.608 75.9229 778.96 75.9229C777.312 75.9229 775.984 75.3549 774.976 74.2189C773.984 73.0829 773.488 71.6829 773.488 70.0189ZM776.248 73.9069C776.888 74.9309 777.792 75.4429 778.96 75.4429C780.128 75.4429 781.008 74.9389 781.6 73.9309C782.208 72.9229 782.512 71.6269 782.512 70.0429C782.512 68.4429 782.192 67.1309 781.552 66.1069C780.912 65.0829 780.008 64.5709 778.84 64.5709C777.688 64.5709 776.808 65.0829 776.2 66.1069C775.608 67.1149 775.312 68.4109 775.312 69.9949C775.312 71.5789 775.624 72.8829 776.248 73.9069ZM793.653 63.9709C794.053 63.9709 794.405 64.0589 794.709 64.2349C795.013 64.4109 795.165 64.6509 795.165 64.9549C795.165 65.2589 795.069 65.4989 794.877 65.6749C794.685 65.8509 794.469 65.9389 794.229 65.9389C793.989 65.9389 793.685 65.8349 793.317 65.6269C792.965 65.4189 792.589 65.3149 792.189 65.3149C791.565 65.3149 791.053 65.8909 790.653 67.0429C790.269 68.1949 790.077 69.5309 790.077 71.0509C790.077 73.0989 790.181 74.3389 790.389 74.7709C790.453 74.9149 790.573 75.0509 790.749 75.1789C790.925 75.2909 791.109 75.3549 791.301 75.3709C791.493 75.3869 791.765 75.3949 792.117 75.3949L792.165 75.6829H786.333L786.381 75.3949C786.893 75.3949 787.261 75.3709 787.485 75.3229C787.725 75.2589 787.925 75.0589 788.085 74.7229C788.245 74.3869 788.333 73.9709 788.349 73.4749C788.381 72.9629 788.397 72.1549 788.397 71.0509V69.6589C788.397 67.4349 788.333 66.1709 788.205 65.8669C788.093 65.5629 787.989 65.3229 787.893 65.1469C787.797 64.9709 787.653 64.8509 787.461 64.7869C787.109 64.6909 786.645 64.6429 786.069 64.6429L786.021 64.3789C787.381 64.1869 788.733 64.0909 790.077 64.0909V67.6189C790.253 66.4829 790.645 65.5949 791.253 64.9549C791.877 64.2989 792.677 63.9709 793.653 63.9709ZM799.392 64.3309H802.344V64.8589H799.392V74.0029C799.392 74.3389 799.472 74.6109 799.632 74.8189C799.792 75.0109 800 75.1069 800.256 75.1069C800.832 75.1069 801.512 74.9389 802.296 74.6029L802.344 74.8669C801.224 75.5709 800.232 75.9229 799.368 75.9229C798.808 75.9229 798.392 75.7869 798.12 75.5149C797.848 75.2429 797.712 74.7709 797.712 74.0989V64.8589H796.272V64.3309C797.136 64.3309 797.736 64.0909 798.072 63.6109C798.424 63.1149 798.688 62.3869 798.864 61.4269L799.392 61.3789V64.3309ZM812.72 67.9309V70.3549C812.72 72.1309 812.776 73.2989 812.888 73.8589C813 74.4029 813.272 74.6749 813.704 74.6749C813.976 74.6749 814.336 74.5629 814.784 74.3389L814.904 74.5789C814.776 74.6749 814.608 74.7949 814.4 74.9389C814.192 75.0669 813.768 75.2429 813.128 75.4669C812.488 75.6909 811.872 75.8029 811.28 75.8029C811.12 75.1309 811.04 74.0589 811.04 72.5869C810.688 73.5789 810.224 74.3869 809.648 75.0109C809.088 75.6189 808.304 75.9229 807.296 75.9229C806.288 75.9229 805.488 75.6589 804.896 75.1309C804.32 74.5869 804.032 73.8509 804.032 72.9229C804.032 70.3469 806.368 69.0509 811.04 69.0349V68.1709C811.04 67.0189 810.872 66.1389 810.536 65.5309C810.2 64.9229 809.576 64.6189 808.664 64.6189C808.152 64.6189 807.736 64.7469 807.416 65.0029C807.096 65.2589 806.88 65.5389 806.768 65.8429C806.496 66.6749 806.088 67.0909 805.544 67.0909C805.016 67.0909 804.752 66.7949 804.752 66.2029C804.752 65.5949 805.152 65.0909 805.952 64.6909C806.752 64.2909 807.72 64.0909 808.856 64.0909C809.992 64.0909 810.92 64.4189 811.64 65.0749C812.36 65.7149 812.72 66.6669 812.72 67.9309ZM805.856 73.0189C805.856 73.6429 806.008 74.1629 806.312 74.5789C806.616 74.9789 807.096 75.1789 807.752 75.1789C808.424 75.1789 809.032 74.8589 809.576 74.2189C810.12 73.5629 810.488 72.8429 810.68 72.0589C810.888 71.2589 811.008 70.4349 811.04 69.5869C809.264 69.6029 807.952 69.9309 807.104 70.5709C806.272 71.2109 805.856 72.0269 805.856 73.0189ZM820.408 64.8589V70.2589C820.408 71.9709 820.456 73.1389 820.552 73.7629C820.664 74.3869 820.816 74.7789 821.008 74.9389C821.376 75.2429 821.96 75.3949 822.76 75.3949L822.808 75.6829H816.352L816.4 75.3949C816.784 75.3949 817.088 75.3789 817.312 75.3469C817.552 75.3149 817.768 75.2269 817.96 75.0829C818.152 74.9389 818.288 74.7789 818.368 74.6029C818.464 74.4109 818.544 74.0989 818.608 73.6669C818.688 73.1069 818.728 71.9709 818.728 70.2589V64.8589H816.52V64.3309H818.728C818.728 61.3069 819.304 59.3549 820.456 58.4749C821.064 58.0269 821.792 57.8029 822.64 57.8029C823.488 57.8029 824.296 58.0269 825.064 58.4749C825.832 58.9229 826.216 59.4349 826.216 60.0109C826.216 60.2509 826.12 60.4589 825.928 60.6349C825.752 60.8109 825.512 60.8989 825.208 60.8989C824.904 60.8989 824.64 60.7709 824.416 60.5149C824.192 60.2589 824.024 59.9869 823.912 59.6989C823.816 59.3949 823.64 59.1149 823.384 58.8589C823.128 58.6029 822.808 58.4749 822.424 58.4749C821.608 58.4749 821.064 58.8589 820.792 59.6269C820.536 60.3789 820.408 61.5709 820.408 63.2029V64.3309H823.576V64.8589H820.408ZM825.027 70.0189C825.027 68.3389 825.507 66.9309 826.467 65.7949C827.427 64.6589 828.731 64.0909 830.379 64.0909C832.027 64.0909 833.355 64.6589 834.363 65.7949C835.371 66.9309 835.875 68.3389 835.875 70.0189C835.875 71.6989 835.387 73.1069 834.411 74.2429C833.451 75.3629 832.147 75.9229 830.499 75.9229C828.851 75.9229 827.523 75.3549 826.515 74.2189C825.523 73.0829 825.027 71.6829 825.027 70.0189ZM827.787 73.9069C828.427 74.9309 829.331 75.4429 830.499 75.4429C831.667 75.4429 832.547 74.9389 833.139 73.9309C833.747 72.9229 834.051 71.6269 834.051 70.0429C834.051 68.4429 833.731 67.1309 833.091 66.1069C832.451 65.0829 831.547 64.5709 830.379 64.5709C829.227 64.5709 828.347 65.0829 827.739 66.1069C827.147 67.1149 826.851 68.4109 826.851 69.9949C826.851 71.5789 827.163 72.8829 827.787 73.9069ZM841.232 58.0189V71.5069C841.232 73.2829 841.336 74.3789 841.544 74.7949C841.752 75.1949 842.328 75.3949 843.272 75.3949L843.32 75.6829H837.44L837.488 75.3949C838.448 75.3949 839.032 75.1949 839.24 74.7949C839.448 74.3949 839.552 73.2989 839.552 71.5069V62.3389C839.552 60.5629 839.456 59.4909 839.264 59.1229C839.2 59.0109 839.08 58.8989 838.904 58.7869C838.728 58.6749 838.536 58.6109 838.328 58.5949C838.136 58.5789 837.856 58.5709 837.488 58.5709L837.44 58.3069C838.64 58.1149 839.904 58.0189 841.232 58.0189ZM846.987 61.2109C846.715 60.9389 846.579 60.6189 846.579 60.2509C846.579 59.8829 846.715 59.5629 846.987 59.2909C847.259 59.0189 847.579 58.8829 847.947 58.8829C848.315 58.8829 848.635 59.0189 848.907 59.2909C849.179 59.5629 849.315 59.8829 849.315 60.2509C849.315 60.6189 849.179 60.9389 848.907 61.2109C848.635 61.4829 848.315 61.6189 847.947 61.6189C847.579 61.6189 847.259 61.4829 846.987 61.2109ZM848.859 64.0909V71.7229C848.859 73.4029 848.955 74.4349 849.147 74.8189C849.355 75.2029 849.931 75.3949 850.875 75.3949L850.923 75.6829H845.067L845.115 75.3949C846.075 75.3949 846.659 75.2029 846.867 74.8189C847.075 74.4189 847.179 73.3709 847.179 71.6749V69.9949C847.179 68.1389 847.123 66.9149 847.011 66.3229C846.915 65.7149 846.771 65.3229 846.579 65.1469C846.195 64.7949 845.603 64.6189 844.803 64.6189L844.755 64.3549C846.147 64.1789 847.515 64.0909 848.859 64.0909ZM852.613 70.0189C852.613 68.3389 853.093 66.9309 854.053 65.7949C855.013 64.6589 856.317 64.0909 857.965 64.0909C859.613 64.0909 860.941 64.6589 861.949 65.7949C862.957 66.9309 863.461 68.3389 863.461 70.0189C863.461 71.6989 862.973 73.1069 861.997 74.2429C861.037 75.3629 859.733 75.9229 858.085 75.9229C856.437 75.9229 855.109 75.3549 854.101 74.2189C853.109 73.0829 852.613 71.6829 852.613 70.0189ZM855.373 73.9069C856.013 74.9309 856.917 75.4429 858.085 75.4429C859.253 75.4429 860.133 74.9389 860.725 73.9309C861.333 72.9229 861.637 71.6269 861.637 70.0429C861.637 68.4429 861.317 67.1309 860.677 66.1069C860.037 65.0829 859.133 64.5709 857.965 64.5709C856.813 64.5709 855.933 65.0829 855.325 66.1069C854.733 67.1149 854.437 68.4109 854.437 69.9949C854.437 71.5789 854.749 72.8829 855.373 73.9069Z" fill="black"/>
<path d="M893.99 58.8829C898.23 58.8829 900.35 60.4989 900.35 63.7309C900.35 65.1549 899.846 66.3229 898.838 67.2349C897.846 68.1469 896.662 68.6029 895.286 68.6029C893.91 68.6029 892.742 68.3789 891.782 67.9309V70.2589C891.782 71.9709 891.83 73.1389 891.926 73.7629C892.038 74.3869 892.19 74.7789 892.382 74.9389C892.75 75.2429 893.334 75.3949 894.134 75.3949L894.182 75.6829H887.702L887.75 75.3949C888.55 75.3949 889.134 75.2429 889.502 74.9389C889.902 74.6029 890.102 73.0429 890.102 70.2589V64.3069C890.102 62.5949 890.046 61.4269 889.934 60.8029C889.838 60.1789 889.694 59.7869 889.502 59.6269C889.134 59.3229 888.55 59.1709 887.75 59.1709L887.702 58.8829H893.99ZM891.782 59.4349V67.3309C892.614 67.7789 893.59 68.0029 894.71 68.0029C895.846 68.0029 896.758 67.6509 897.446 66.9469C898.134 66.2269 898.478 65.1549 898.478 63.7309C898.478 61.9549 897.902 60.7709 896.75 60.1789C895.806 59.6829 894.67 59.4349 893.342 59.4349H891.782ZM909.174 63.9709C909.574 63.9709 909.926 64.0589 910.23 64.2349C910.534 64.4109 910.686 64.6509 910.686 64.9549C910.686 65.2589 910.59 65.4989 910.398 65.6749C910.206 65.8509 909.99 65.9389 909.75 65.9389C909.51 65.9389 909.206 65.8349 908.838 65.6269C908.486 65.4189 908.11 65.3149 907.71 65.3149C907.086 65.3149 906.574 65.8909 906.174 67.0429C905.79 68.1949 905.598 69.5309 905.598 71.0509C905.598 73.0989 905.702 74.3389 905.91 74.7709C905.974 74.9149 906.094 75.0509 906.27 75.1789C906.446 75.2909 906.63 75.3549 906.822 75.3709C907.014 75.3869 907.286 75.3949 907.638 75.3949L907.686 75.6829H901.854L901.902 75.3949C902.414 75.3949 902.782 75.3709 903.006 75.3229C903.246 75.2589 903.446 75.0589 903.606 74.7229C903.766 74.3869 903.854 73.9709 903.87 73.4749C903.902 72.9629 903.918 72.1549 903.918 71.0509V69.6589C903.918 67.4349 903.854 66.1709 903.726 65.8669C903.614 65.5629 903.51 65.3229 903.414 65.1469C903.318 64.9709 903.174 64.8509 902.982 64.7869C902.63 64.6909 902.166 64.6429 901.59 64.6429L901.542 64.3789C902.902 64.1869 904.254 64.0909 905.598 64.0909V67.6189C905.774 66.4829 906.166 65.5949 906.774 64.9549C907.398 64.2989 908.198 63.9709 909.174 63.9709ZM911.415 70.0189C911.415 68.3389 911.895 66.9309 912.855 65.7949C913.815 64.6589 915.119 64.0909 916.767 64.0909C918.415 64.0909 919.743 64.6589 920.751 65.7949C921.759 66.9309 922.263 68.3389 922.263 70.0189C922.263 71.6989 921.775 73.1069 920.799 74.2429C919.839 75.3629 918.535 75.9229 916.887 75.9229C915.239 75.9229 913.911 75.3549 912.903 74.2189C911.911 73.0829 911.415 71.6829 911.415 70.0189ZM914.175 73.9069C914.815 74.9309 915.719 75.4429 916.887 75.4429C918.055 75.4429 918.935 74.9389 919.527 73.9309C920.135 72.9229 920.439 71.6269 920.439 70.0429C920.439 68.4429 920.119 67.1309 919.479 66.1069C918.839 65.0829 917.935 64.5709 916.767 64.5709C915.615 64.5709 914.735 65.0829 914.127 66.1069C913.535 67.1149 913.239 68.4109 913.239 69.9949C913.239 71.5789 913.551 72.8829 914.175 73.9069ZM925.556 80.7229C926.356 80.7229 927.02 80.4109 927.548 79.7869C928.092 79.1789 928.644 78.1869 929.204 76.8109L925.628 67.7869C925.1 66.4429 924.62 65.5789 924.188 65.1949C923.772 64.8109 923.268 64.6189 922.676 64.6189L922.628 64.3309H928.58L928.532 64.6189C927.972 64.6189 927.58 64.7069 927.356 64.8829C927.148 65.0589 927.044 65.3309 927.044 65.6989C927.044 66.4349 927.42 67.7469 928.172 69.6349L930.02 74.2909L931.892 68.5309C932.26 67.3789 932.444 66.5069 932.444 65.9149C932.444 65.0509 931.884 64.6189 930.764 64.6189L930.716 64.3309H935.228L935.18 64.6189C934.524 64.6189 934.06 64.8349 933.788 65.2669C933.532 65.6829 933.044 66.9869 932.324 69.1789L930.164 75.7549C929.46 77.9149 928.636 79.5789 927.692 80.7469C926.748 81.9149 925.764 82.4989 924.74 82.4989C924.276 82.4989 923.892 82.4029 923.588 82.2109C923.284 82.0349 923.132 81.7789 923.132 81.4429C923.132 81.1229 923.228 80.8669 923.42 80.6749C923.628 80.4989 923.844 80.4109 924.068 80.4109C924.308 80.4109 924.572 80.4589 924.86 80.5549C925.148 80.6669 925.38 80.7229 925.556 80.7229ZM945.65 69.6109H937.778V70.0189C937.778 71.7149 938.138 73.0109 938.858 73.9069C939.578 74.7869 940.474 75.2269 941.546 75.2269C943.146 75.2269 944.298 74.5869 945.002 73.3069L945.362 73.4989C944.53 75.1149 943.138 75.9229 941.186 75.9229C939.746 75.9229 938.514 75.4029 937.49 74.3629C936.466 73.3229 935.954 71.9229 935.954 70.1629C935.954 68.3869 936.402 66.9309 937.298 65.7949C938.21 64.6589 939.418 64.0909 940.922 64.0909C942.442 64.0909 943.61 64.6109 944.426 65.6509C945.242 66.6749 945.65 67.9949 945.65 69.6109ZM940.994 64.5709C940.066 64.5709 939.33 64.9709 938.786 65.7709C938.258 66.5549 937.938 67.6029 937.826 68.9149H943.802C943.69 66.0189 942.754 64.5709 940.994 64.5709ZM952.949 75.9229C951.541 75.9229 950.333 75.4029 949.325 74.3629C948.317 73.3229 947.813 71.9149 947.813 70.1389C947.813 68.3469 948.269 66.8909 949.181 65.7709C950.109 64.6509 951.421 64.0909 953.117 64.0909C954.173 64.0909 955.093 64.2669 955.877 64.6189C956.661 64.9549 957.053 65.4269 957.053 66.0349C957.053 66.5789 956.757 66.8509 956.165 66.8509C955.861 66.8509 955.605 66.7309 955.397 66.4909C955.205 66.2509 955.053 65.9949 954.941 65.7229C954.845 65.4349 954.645 65.1709 954.341 64.9309C954.037 64.6909 953.637 64.5709 953.141 64.5709C951.989 64.5709 951.117 65.0509 950.525 66.0109C949.933 66.9709 949.637 68.2909 949.637 69.9709C949.637 71.6349 949.989 72.9309 950.693 73.8589C951.397 74.7709 952.269 75.2269 953.309 75.2269C954.893 75.2269 956.021 74.5869 956.693 73.3069L957.053 73.4989C956.237 75.1149 954.869 75.9229 952.949 75.9229ZM961.882 64.3309H964.834V64.8589H961.882V74.0029C961.882 74.3389 961.962 74.6109 962.122 74.8189C962.282 75.0109 962.49 75.1069 962.746 75.1069C963.322 75.1069 964.002 74.9389 964.786 74.6029L964.834 74.8669C963.714 75.5709 962.722 75.9229 961.858 75.9229C961.298 75.9229 960.882 75.7869 960.61 75.5149C960.338 75.2429 960.202 74.7709 960.202 74.0989V64.8589H958.762V64.3309C959.626 64.3309 960.226 64.0909 960.562 63.6109C960.914 63.1149 961.178 62.3869 961.354 61.4269L961.882 61.3789V64.3309ZM966.282 70.0189C966.282 68.3389 966.762 66.9309 967.722 65.7949C968.682 64.6589 969.986 64.0909 971.634 64.0909C973.282 64.0909 974.61 64.6589 975.618 65.7949C976.626 66.9309 977.13 68.3389 977.13 70.0189C977.13 71.6989 976.642 73.1069 975.666 74.2429C974.706 75.3629 973.402 75.9229 971.754 75.9229C970.106 75.9229 968.778 75.3549 967.77 74.2189C966.778 73.0829 966.282 71.6829 966.282 70.0189ZM969.042 73.9069C969.682 74.9309 970.586 75.4429 971.754 75.4429C972.922 75.4429 973.802 74.9389 974.394 73.9309C975.002 72.9229 975.306 71.6269 975.306 70.0429C975.306 68.4429 974.986 67.1309 974.346 66.1069C973.706 65.0829 972.802 64.5709 971.634 64.5709C970.482 64.5709 969.602 65.0829 968.994 66.1069C968.402 67.1149 968.106 68.4109 968.106 69.9949C968.106 71.5789 968.418 72.8829 969.042 73.9069ZM979.823 72.1069C979.823 73.1469 980.103 73.9309 980.663 74.4589C981.223 74.9709 981.887 75.2269 982.655 75.2269C983.439 75.2269 984.071 75.0509 984.551 74.6989C985.031 74.3469 985.271 73.8749 985.271 73.2829C985.271 72.6749 985.063 72.1789 984.647 71.7949C984.247 71.4109 983.759 71.0989 983.183 70.8589C982.607 70.6189 982.023 70.3709 981.431 70.1149C980.855 69.8589 980.359 69.4829 979.943 68.9869C979.543 68.4909 979.343 67.8269 979.343 66.9949C979.343 66.1629 979.711 65.4749 980.447 64.9309C981.199 64.3709 982.063 64.0909 983.039 64.0909C984.431 64.0909 985.519 64.3149 986.303 64.7629C986.303 65.4989 986.207 66.5229 986.015 67.8349L985.727 67.7629C985.727 66.7069 985.487 65.9389 985.007 65.4589C984.527 64.9789 983.943 64.7389 983.255 64.7389C982.583 64.7389 982.039 64.9149 981.623 65.2669C981.223 65.6189 981.023 66.0989 981.023 66.7069C981.023 67.2989 981.223 67.7789 981.623 68.1469C982.039 68.4989 982.535 68.7949 983.111 69.0349C983.687 69.2749 984.263 69.5309 984.839 69.8029C985.431 70.0589 985.927 70.4349 986.327 70.9309C986.743 71.4109 986.951 72.0029 986.951 72.7069C986.951 73.7309 986.551 74.5229 985.751 75.0829C984.951 75.6429 983.895 75.9229 982.583 75.9229C981.287 75.9229 980.191 75.5789 979.295 74.8909C979.295 74.0909 979.375 73.1469 979.535 72.0589L979.823 72.1069Z" fill="black"/>
<path d="M1016.28 70.5949C1016.28 72.1469 1016.66 73.3309 1017.41 74.1469C1018.18 74.9629 1019.12 75.3709 1020.22 75.3709C1021.32 75.3709 1022.23 75.1069 1022.93 74.5789C1023.64 74.0349 1023.99 73.1869 1023.99 72.0349C1023.99 70.9949 1023.44 70.0669 1022.33 69.2509C1021.85 68.8989 1021.32 68.5549 1020.72 68.2189C1020.13 67.8669 1019.54 67.5069 1018.95 67.1389C1018.36 66.7709 1017.82 66.3869 1017.34 65.9869C1016.24 65.0589 1015.68 63.9789 1015.68 62.7469C1015.68 61.4989 1016.13 60.5069 1017.03 59.7709C1017.94 59.0349 1019.14 58.6669 1020.63 58.6669C1022.13 58.6669 1023.52 58.9949 1024.8 59.6509C1024.8 60.4509 1024.68 61.8269 1024.44 63.7789L1024.08 63.6829C1024.08 62.1789 1023.72 61.0589 1022.98 60.3229C1022.24 59.5709 1021.4 59.1949 1020.44 59.1949C1019.49 59.1949 1018.73 59.4749 1018.16 60.0349C1017.58 60.5789 1017.29 61.2269 1017.29 61.9789C1017.29 62.7309 1017.49 63.3789 1017.89 63.9229C1018.31 64.4509 1018.82 64.8909 1019.43 65.2429C1020.05 65.5949 1020.72 65.9869 1021.44 66.4189C1022.16 66.8349 1022.83 67.2509 1023.44 67.6669C1024.06 68.0669 1024.57 68.5949 1024.97 69.2509C1025.39 69.9069 1025.6 70.6429 1025.6 71.4589C1025.6 72.9309 1025.07 74.0429 1024.01 74.7949C1022.97 75.5469 1021.72 75.9229 1020.24 75.9229C1019.43 75.9229 1018.59 75.7949 1017.72 75.5389C1016.88 75.2829 1016.18 74.9069 1015.64 74.4109C1015.64 73.3869 1015.73 72.0909 1015.92 70.5229L1016.28 70.5949ZM1027.88 70.0189C1027.88 68.3389 1028.36 66.9309 1029.32 65.7949C1030.28 64.6589 1031.59 64.0909 1033.24 64.0909C1034.88 64.0909 1036.21 64.6589 1037.22 65.7949C1038.23 66.9309 1038.73 68.3389 1038.73 70.0189C1038.73 71.6989 1038.24 73.1069 1037.27 74.2429C1036.31 75.3629 1035 75.9229 1033.36 75.9229C1031.71 75.9229 1030.38 75.3549 1029.37 74.2189C1028.38 73.0829 1027.88 71.6829 1027.88 70.0189ZM1030.64 73.9069C1031.28 74.9309 1032.19 75.4429 1033.36 75.4429C1034.52 75.4429 1035.4 74.9389 1036 73.9309C1036.6 72.9229 1036.91 71.6269 1036.91 70.0429C1036.91 68.4429 1036.59 67.1309 1035.95 66.1069C1035.31 65.0829 1034.4 64.5709 1033.24 64.5709C1032.08 64.5709 1031.2 65.0829 1030.6 66.1069C1030 67.1149 1029.71 68.4109 1029.71 69.9949C1029.71 71.5789 1030.02 72.8829 1030.64 73.9069ZM1047.59 64.0909C1048.63 64.0909 1049.51 64.4029 1050.21 65.0269C1051.46 66.1309 1052.08 67.8029 1052.08 70.0429C1052.08 71.7549 1051.54 73.1629 1050.45 74.2669C1049.38 75.3709 1047.92 75.9229 1046.08 75.9229C1045.33 75.9229 1044.63 75.8669 1043.99 75.7549C1043.35 75.6429 1042.9 75.5389 1042.63 75.4429L1042.24 75.2749V62.2909C1042.24 60.5469 1042.15 59.4909 1041.95 59.1229C1041.89 59.0109 1041.77 58.9069 1041.59 58.8109C1041.42 58.6989 1041.23 58.6349 1041.04 58.6189C1040.85 58.6029 1040.58 58.5949 1040.23 58.5949L1040.18 58.3309C1041.33 58.1389 1042.58 58.0429 1043.92 58.0429V67.2349C1044.59 65.1389 1045.82 64.0909 1047.59 64.0909ZM1043.92 74.5069C1044.53 74.9869 1045.26 75.2269 1046.11 75.2269C1046.97 75.2269 1047.67 75.0589 1048.22 74.7229C1048.76 74.3869 1049.17 73.9549 1049.44 73.4269C1049.73 72.8829 1049.94 72.3309 1050.07 71.7709C1050.19 71.1949 1050.26 70.6189 1050.26 70.0429C1050.26 69.4669 1050.21 68.9069 1050.11 68.3629C1050.03 67.8189 1049.89 67.2669 1049.68 66.7069C1049.49 66.1469 1049.18 65.6989 1048.75 65.3629C1048.31 65.0109 1047.76 64.8349 1047.09 64.8349C1046.42 64.8349 1045.82 65.1869 1045.29 65.8909C1044.76 66.5949 1044.4 67.3309 1044.21 68.0989C1044.02 68.8509 1043.92 69.5149 1043.92 70.0909V74.5069ZM1061.39 63.9709C1061.79 63.9709 1062.14 64.0589 1062.44 64.2349C1062.75 64.4109 1062.9 64.6509 1062.9 64.9549C1062.9 65.2589 1062.8 65.4989 1062.61 65.6749C1062.42 65.8509 1062.2 65.9389 1061.96 65.9389C1061.72 65.9389 1061.42 65.8349 1061.05 65.6269C1060.7 65.4189 1060.32 65.3149 1059.92 65.3149C1059.3 65.3149 1058.79 65.8909 1058.39 67.0429C1058 68.1949 1057.81 69.5309 1057.81 71.0509C1057.81 73.0989 1057.91 74.3389 1058.12 74.7709C1058.19 74.9149 1058.31 75.0509 1058.48 75.1789C1058.66 75.2909 1058.84 75.3549 1059.03 75.3709C1059.23 75.3869 1059.5 75.3949 1059.85 75.3949L1059.9 75.6829H1054.07L1054.11 75.3949C1054.63 75.3949 1054.99 75.3709 1055.22 75.3229C1055.46 75.2589 1055.66 75.0589 1055.82 74.7229C1055.98 74.3869 1056.07 73.9709 1056.08 73.4749C1056.11 72.9629 1056.13 72.1549 1056.13 71.0509V69.6589C1056.13 67.4349 1056.07 66.1709 1055.94 65.8669C1055.83 65.5629 1055.72 65.3229 1055.63 65.1469C1055.53 64.9709 1055.39 64.8509 1055.19 64.7869C1054.84 64.6909 1054.38 64.6429 1053.8 64.6429L1053.75 64.3789C1055.11 64.1869 1056.47 64.0909 1057.81 64.0909V67.6189C1057.99 66.4829 1058.38 65.5949 1058.99 64.9549C1059.61 64.2989 1060.41 63.9709 1061.39 63.9709ZM1073.32 69.6109H1065.45V70.0189C1065.45 71.7149 1065.81 73.0109 1066.53 73.9069C1067.25 74.7869 1068.15 75.2269 1069.22 75.2269C1070.82 75.2269 1071.97 74.5869 1072.67 73.3069L1073.03 73.4989C1072.2 75.1149 1070.81 75.9229 1068.86 75.9229C1067.42 75.9229 1066.19 75.4029 1065.16 74.3629C1064.14 73.3229 1063.63 71.9229 1063.63 70.1629C1063.63 68.3869 1064.07 66.9309 1064.97 65.7949C1065.88 64.6589 1067.09 64.0909 1068.59 64.0909C1070.11 64.0909 1071.28 64.6109 1072.1 65.6509C1072.91 66.6749 1073.32 67.9949 1073.32 69.6109ZM1068.67 64.5709C1067.74 64.5709 1067 64.9709 1066.46 65.7709C1065.93 66.5549 1065.61 67.6029 1065.5 68.9149H1071.47C1071.36 66.0189 1070.43 64.5709 1068.67 64.5709ZM1100.3 64.3069V70.2589C1100.3 71.9709 1100.35 73.1389 1100.45 73.7629C1100.56 74.3869 1100.71 74.7789 1100.9 74.9389C1101.27 75.2429 1101.85 75.3949 1102.65 75.3949L1102.7 75.6829H1096.27L1096.32 75.3949C1097.1 75.3949 1097.68 75.2509 1098.05 74.9629C1098.35 74.7229 1098.53 73.9389 1098.57 72.6109C1098.61 72.0829 1098.62 71.2989 1098.62 70.2589V60.1069L1091.9 75.4429L1084.97 62.4589V70.2109C1084.97 71.8109 1085.04 72.9709 1085.18 73.6909C1085.34 74.3949 1085.59 74.8589 1085.93 75.0829C1086.26 75.2909 1086.82 75.3949 1087.61 75.3949L1087.65 75.6829H1081.75L1081.8 75.3949C1082.39 75.3949 1082.83 75.3549 1083.12 75.2749C1083.42 75.1789 1083.68 74.9389 1083.89 74.5549C1084.09 74.1709 1084.22 73.6589 1084.27 73.0189C1084.33 72.3789 1084.37 71.4429 1084.37 70.2109V64.3309C1084.37 63.0989 1084.33 62.1629 1084.27 61.5229C1084.22 60.8829 1084.09 60.3709 1083.89 59.9869C1083.68 59.6029 1083.42 59.3709 1083.12 59.2909C1082.83 59.1949 1082.39 59.1469 1081.8 59.1469L1081.75 58.8829H1084.97L1092.38 72.8749L1098.5 58.8829H1102.7L1102.65 59.1469C1101.85 59.1469 1101.27 59.2989 1100.9 59.6029C1100.5 59.9389 1100.3 61.5069 1100.3 64.3069ZM1106.85 61.2109C1106.57 60.9389 1106.44 60.6189 1106.44 60.2509C1106.44 59.8829 1106.57 59.5629 1106.85 59.2909C1107.12 59.0189 1107.44 58.8829 1107.81 58.8829C1108.17 58.8829 1108.49 59.0189 1108.77 59.2909C1109.04 59.5629 1109.17 59.8829 1109.17 60.2509C1109.17 60.6189 1109.04 60.9389 1108.77 61.2109C1108.49 61.4829 1108.17 61.6189 1107.81 61.6189C1107.44 61.6189 1107.12 61.4829 1106.85 61.2109ZM1108.72 64.0909V71.7229C1108.72 73.4029 1108.81 74.4349 1109.01 74.8189C1109.21 75.2029 1109.79 75.3949 1110.73 75.3949L1110.78 75.6829H1104.93L1104.97 75.3949C1105.93 75.3949 1106.52 75.2029 1106.73 74.8189C1106.93 74.4189 1107.04 73.3709 1107.04 71.6749V69.9949C1107.04 68.1389 1106.98 66.9149 1106.87 66.3229C1106.77 65.7149 1106.63 65.3229 1106.44 65.1469C1106.05 64.7949 1105.46 64.6189 1104.66 64.6189L1104.61 64.3549C1106.01 64.1789 1107.37 64.0909 1108.72 64.0909Z" fill="black"/>
<path d="M1156.74 74.0536C1154.9 75.4456 1152.69 76.1416 1150.11 76.1416C1147.55 76.1416 1145.49 75.3176 1143.92 73.6696C1142.35 72.0216 1141.57 69.9656 1141.57 67.5016C1141.57 65.0376 1142.32 62.9896 1143.83 61.3576C1145.35 59.7096 1147.39 58.8856 1149.95 58.8856C1151.13 58.8856 1152.31 59.0456 1153.5 59.3656C1154.68 59.6856 1155.58 60.0136 1156.19 60.3496V63.4216L1155.92 63.3736C1155.52 61.9336 1154.83 60.9176 1153.83 60.3256C1152.86 59.7336 1151.56 59.4376 1149.95 59.4376C1147.9 59.4376 1146.34 60.1816 1145.27 61.6696C1144.19 63.1416 1143.66 65.0696 1143.66 67.4536C1143.66 69.8376 1144.23 71.7656 1145.36 73.2376C1146.5 74.7096 1148.09 75.4456 1150.14 75.4456C1151.61 75.4456 1152.83 75.2696 1153.81 74.9176C1154.8 74.5496 1155.78 74.0216 1156.74 73.3336V74.0536ZM1158.42 70.2376C1158.42 68.5576 1158.9 67.1496 1159.86 66.0136C1160.82 64.8776 1162.12 64.3096 1163.77 64.3096C1165.42 64.3096 1166.74 64.8776 1167.75 66.0136C1168.76 67.1496 1169.26 68.5576 1169.26 70.2376C1169.26 71.9176 1168.78 73.3256 1167.8 74.4616C1166.84 75.5816 1165.54 76.1416 1163.89 76.1416C1162.24 76.1416 1160.91 75.5736 1159.9 74.4376C1158.91 73.3016 1158.42 71.9016 1158.42 70.2376ZM1161.18 74.1256C1161.82 75.1496 1162.72 75.6616 1163.89 75.6616C1165.06 75.6616 1165.94 75.1576 1166.53 74.1496C1167.14 73.1416 1167.44 71.8456 1167.44 70.2616C1167.44 68.6616 1167.12 67.3496 1166.48 66.3256C1165.84 65.3016 1164.94 64.7896 1163.77 64.7896C1162.62 64.7896 1161.74 65.3016 1161.13 66.3256C1160.54 67.3336 1160.24 68.6296 1160.24 70.2136C1160.24 71.7976 1160.55 73.1016 1161.18 74.1256ZM1175.05 64.3096V68.6056C1175.2 67.4536 1175.6 66.4536 1176.25 65.6056C1176.91 64.7416 1177.78 64.3096 1178.87 64.3096C1181.32 64.3096 1182.54 65.5896 1182.54 68.1496V71.9416C1182.54 73.6056 1182.65 74.6376 1182.85 75.0376C1183.08 75.4216 1183.65 75.6136 1184.58 75.6136L1184.63 75.9016H1178.8L1178.85 75.6136C1179.81 75.6136 1180.38 75.4136 1180.57 75.0136C1180.77 74.6136 1180.86 73.5176 1180.86 71.7256V68.3896C1180.86 67.2856 1180.69 66.4536 1180.33 65.8936C1180 65.3336 1179.45 65.0536 1178.7 65.0536C1177.97 65.0536 1177.35 65.3096 1176.85 65.8216C1176.36 66.3176 1175.99 66.9496 1175.75 67.7176C1175.29 69.2056 1175.05 70.7016 1175.05 72.2056C1175.05 73.7096 1175.15 74.6536 1175.34 75.0376C1175.55 75.4216 1176.13 75.6136 1177.07 75.6136L1177.12 75.9016H1171.26L1171.31 75.6136C1172.27 75.6136 1172.85 75.4216 1173.06 75.0376C1173.27 74.6376 1173.37 73.5896 1173.37 71.8936V69.9736C1173.37 67.5736 1173.25 66.1256 1173.01 65.6296C1172.93 65.4536 1172.79 65.2936 1172.58 65.1496C1172.39 65.0056 1172.17 64.9176 1171.93 64.8856C1171.71 64.8536 1171.4 64.8376 1171 64.8376L1170.95 64.5736C1172.34 64.3976 1173.71 64.3096 1175.05 64.3096ZM1189.57 64.5496H1192.52V65.0776H1189.57V74.2216C1189.57 74.5576 1189.65 74.8296 1189.81 75.0376C1189.97 75.2296 1190.18 75.3256 1190.43 75.3256C1191.01 75.3256 1191.69 75.1576 1192.47 74.8216L1192.52 75.0856C1191.4 75.7896 1190.41 76.1416 1189.55 76.1416C1188.99 76.1416 1188.57 76.0056 1188.3 75.7336C1188.03 75.4616 1187.89 74.9896 1187.89 74.3176V65.0776H1186.45V64.5496C1187.31 64.5496 1187.91 64.3096 1188.25 63.8296C1188.6 63.3336 1188.87 62.6056 1189.04 61.6456L1189.57 61.5976V64.5496ZM1202.9 68.1496V70.5736C1202.9 72.3496 1202.95 73.5176 1203.07 74.0776C1203.18 74.6216 1203.45 74.8936 1203.88 74.8936C1204.15 74.8936 1204.51 74.7816 1204.96 74.5576L1205.08 74.7976C1204.95 74.8936 1204.79 75.0136 1204.58 75.1576C1204.37 75.2856 1203.95 75.4616 1203.31 75.6856C1202.67 75.9096 1202.05 76.0216 1201.46 76.0216C1201.3 75.3496 1201.22 74.2776 1201.22 72.8056C1200.87 73.7976 1200.4 74.6056 1199.83 75.2296C1199.27 75.8376 1198.48 76.1416 1197.47 76.1416C1196.47 76.1416 1195.67 75.8776 1195.07 75.3496C1194.5 74.8056 1194.21 74.0696 1194.21 73.1416C1194.21 70.5656 1196.55 69.2696 1201.22 69.2536V68.3896C1201.22 67.2376 1201.05 66.3576 1200.71 65.7496C1200.38 65.1416 1199.75 64.8376 1198.84 64.8376C1198.33 64.8376 1197.91 64.9656 1197.59 65.2216C1197.27 65.4776 1197.06 65.7576 1196.95 66.0616C1196.67 66.8936 1196.27 67.3096 1195.72 67.3096C1195.19 67.3096 1194.93 67.0136 1194.93 66.4216C1194.93 65.8136 1195.33 65.3096 1196.13 64.9096C1196.93 64.5096 1197.9 64.3096 1199.03 64.3096C1200.17 64.3096 1201.1 64.6376 1201.82 65.2936C1202.54 65.9336 1202.9 66.8856 1202.9 68.1496ZM1196.03 73.2376C1196.03 73.8616 1196.19 74.3816 1196.49 74.7976C1196.79 75.1976 1197.27 75.3976 1197.93 75.3976C1198.6 75.3976 1199.21 75.0776 1199.75 74.4376C1200.3 73.7816 1200.67 73.0616 1200.86 72.2776C1201.07 71.4776 1201.19 70.6536 1201.22 69.8056C1199.44 69.8216 1198.13 70.1496 1197.28 70.7896C1196.45 71.4296 1196.03 72.2456 1196.03 73.2376ZM1211.79 76.1416C1210.38 76.1416 1209.17 75.6216 1208.16 74.5816C1207.15 73.5416 1206.65 72.1336 1206.65 70.3576C1206.65 68.5656 1207.11 67.1096 1208.02 65.9896C1208.95 64.8696 1210.26 64.3096 1211.95 64.3096C1213.01 64.3096 1213.93 64.4856 1214.71 64.8376C1215.5 65.1736 1215.89 65.6456 1215.89 66.2536C1215.89 66.7976 1215.59 67.0696 1215 67.0696C1214.7 67.0696 1214.44 66.9496 1214.23 66.7096C1214.04 66.4696 1213.89 66.2136 1213.78 65.9416C1213.68 65.6536 1213.48 65.3896 1213.18 65.1496C1212.87 64.9096 1212.47 64.7896 1211.98 64.7896C1210.83 64.7896 1209.95 65.2696 1209.36 66.2296C1208.77 67.1896 1208.47 68.5096 1208.47 70.1896C1208.47 71.8536 1208.83 73.1496 1209.53 74.0776C1210.23 74.9896 1211.11 75.4456 1212.15 75.4456C1213.73 75.4456 1214.86 74.8056 1215.53 73.5256L1215.89 73.7176C1215.07 75.3336 1213.71 76.1416 1211.79 76.1416ZM1220.72 64.5496H1223.67V65.0776H1220.72V74.2216C1220.72 74.5576 1220.8 74.8296 1220.96 75.0376C1221.12 75.2296 1221.33 75.3256 1221.58 75.3256C1222.16 75.3256 1222.84 75.1576 1223.62 74.8216L1223.67 75.0856C1222.55 75.7896 1221.56 76.1416 1220.69 76.1416C1220.13 76.1416 1219.72 76.0056 1219.45 75.7336C1219.17 75.4616 1219.04 74.9896 1219.04 74.3176V65.0776H1217.6V64.5496C1218.46 64.5496 1219.06 64.3096 1219.4 63.8296C1219.75 63.3336 1220.01 62.6056 1220.19 61.6456L1220.72 61.5976V64.5496ZM1225.12 70.2376C1225.12 68.5576 1225.6 67.1496 1226.56 66.0136C1227.52 64.8776 1228.82 64.3096 1230.47 64.3096C1232.12 64.3096 1233.45 64.8776 1234.45 66.0136C1235.46 67.1496 1235.97 68.5576 1235.97 70.2376C1235.97 71.9176 1235.48 73.3256 1234.5 74.4616C1233.54 75.5816 1232.24 76.1416 1230.59 76.1416C1228.94 76.1416 1227.61 75.5736 1226.61 74.4376C1225.61 73.3016 1225.12 71.9016 1225.12 70.2376ZM1227.88 74.1256C1228.52 75.1496 1229.42 75.6616 1230.59 75.6616C1231.76 75.6616 1232.64 75.1576 1233.23 74.1496C1233.84 73.1416 1234.14 71.8456 1234.14 70.2616C1234.14 68.6616 1233.82 67.3496 1233.18 66.3256C1232.54 65.3016 1231.64 64.7896 1230.47 64.7896C1229.32 64.7896 1228.44 65.3016 1227.83 66.3256C1227.24 67.3336 1226.94 68.6296 1226.94 70.2136C1226.94 71.7976 1227.25 73.1016 1227.88 74.1256Z" fill="black"/>
<defs>
<filter id="filter0_d_729_237" x="182.285" y="16.592" width="130.24" height="133.184" filterUnits="userSpaceOnUse" color-interpolation-filters="sRGB">
<feFlood flood-opacity="0" result="BackgroundImageFix"/>
<feColorMatrix in="SourceAlpha" type="matrix" values="0 0 0 0 0 0 0 0 0 0 0 0 0 0 0 0 0 0 127 0" result="hardAlpha"/>
<feOffset dy="4"/>
<feGaussianBlur stdDeviation="2"/>
<feComposite in2="hardAlpha" operator="out"/>
<feColorMatrix type="matrix" values="0 0 0 0 1 0 0 0 0 1 0 0 0 0 1 0 0 0 0.25 0"/>
<feBlend mode="normal" in2="BackgroundImageFix" result="effect1_dropShadow_729_237"/>
<feBlend mode="normal" in="SourceGraphic" in2="effect1_dropShadow_729_237" result="shape"/>
</filter>
<filter id="filter1_d_729_237" x="178.486" y="35.608" width="54.08" height="101.184" filterUnits="userSpaceOnUse" color-interpolation-filters="sRGB">
<feFlood flood-opacity="0" result="BackgroundImageFix"/>
<feColorMatrix in="SourceAlpha" type="matrix" values="0 0 0 0 0 0 0 0 0 0 0 0 0 0 0 0 0 0 127 0" result="hardAlpha"/>
<feOffset dy="4"/>
<feGaussianBlur stdDeviation="2"/>
<feComposite in2="hardAlpha" operator="out"/>
<feColorMatrix type="matrix" values="0 0 0 0 1 0 0 0 0 1 0 0 0 0 1 0 0 0 0.25 0"/>
<feBlend mode="normal" in2="BackgroundImageFix" result="effect1_dropShadow_729_237"/>
<feBlend mode="normal" in="SourceGraphic" in2="effect1_dropShadow_729_237" result="shape"/>
</filter>
</defs>
</svg>
