<svg width="263" height="140" viewBox="0 0 263 140" fill="none" xmlns="http://www.w3.org/2000/svg">
<g filter="url(#filter0_d_788_800)">
<path d="M117.669 10.048C123.216 7.74399 128.549 6.59199 133.669 6.59199C137.936 6.59199 142.331 8.17066 146.853 11.328C149.328 13.0347 152.101 16.3627 155.173 21.312C157.221 24.7253 159.824 30.912 162.981 39.872L178.597 84.16C182.181 94.0586 185.808 101.909 189.477 107.712C193.232 113.6 196.645 117.995 199.717 120.896C202.789 123.883 205.989 125.973 209.317 127.168C212.645 128.363 215.376 128.96 217.509 128.96C219.728 128.96 221.691 128.789 223.397 128.448L223.525 129.728C219.429 131.093 215.419 131.776 211.493 131.776C207.568 131.776 203.643 130.752 199.717 128.704C195.792 126.741 192.123 123.968 188.709 120.384C181.371 112.96 175.141 101.653 170.021 86.464L165.029 71.872H129.957L121.125 94.656C120.699 95.68 120.485 96.704 120.485 97.728C120.485 98.752 120.912 99.8613 121.765 101.056C122.704 102.165 124.112 102.72 125.989 102.72H127.013V104H101.285V102.72H102.437C104.485 102.72 106.491 102.123 108.453 100.928C110.416 99.648 112.037 97.7706 113.317 95.296L145.061 19.264C140.453 12.6933 134.736 9.40799 127.909 9.40799C124.837 9.40799 121.552 10.048 118.053 11.328L117.669 10.048ZM131.365 68.032H163.749L153.637 38.208C151.675 32.4907 149.883 28.0107 148.261 24.768L131.365 68.032Z" fill="#001017"/>
</g>
<g filter="url(#filter1_d_788_800)">
<path d="M97.8705 111.752C97.6145 110.557 97.4865 108.253 97.4865 104.84C97.4865 101.427 98.1265 97.8 99.4065 93.96H100.558C100.473 94.8986 100.43 95.8373 100.43 96.776C100.43 101.981 102.009 106.333 105.166 109.832C108.324 113.245 112.505 114.952 117.71 114.952C123.086 114.952 127.481 113.331 130.894 110.088C134.393 106.845 136.142 102.792 136.142 97.928C136.142 92.9786 134.478 88.968 131.15 85.896L106.574 63.112C101.966 58.8453 99.6625 53.6827 99.6625 47.624C99.6625 41.5653 101.668 36.4027 105.678 32.136C109.774 27.784 115.278 25.608 122.19 25.608C125.433 25.608 129.102 26.0347 133.198 26.888H138.19V42.632H137.038C137.038 38.6213 135.63 35.4213 132.814 33.032C130.084 30.6427 126.542 29.448 122.19 29.448C117.838 29.448 114.169 30.8987 111.182 33.8C108.281 36.7013 106.83 40.328 106.83 44.68C106.83 49.032 108.537 52.7867 111.95 55.944L137.166 79.24C141.433 83.1653 143.566 88.5413 143.566 95.368C143.566 102.195 141.39 107.827 137.038 112.264C132.686 116.616 126.884 118.792 119.63 118.792C115.876 118.792 111.865 118.195 107.598 117C103.417 115.891 100.174 114.141 97.8705 111.752Z" fill="#155260"/>
</g>
<defs>
<filter id="filter0_d_788_800" x="97.2855" y="6.59204" width="130.24" height="133.184" filterUnits="userSpaceOnUse" color-interpolation-filters="sRGB">
<feFlood flood-opacity="0" result="BackgroundImageFix"/>
<feColorMatrix in="SourceAlpha" type="matrix" values="0 0 0 0 0 0 0 0 0 0 0 0 0 0 0 0 0 0 127 0" result="hardAlpha"/>
<feOffset dy="4"/>
<feGaussianBlur stdDeviation="2"/>
<feComposite in2="hardAlpha" operator="out"/>
<feColorMatrix type="matrix" values="0 0 0 0 1 0 0 0 0 1 0 0 0 0 1 0 0 0 0.25 0"/>
<feBlend mode="normal" in2="BackgroundImageFix" result="effect1_dropShadow_788_800"/>
<feBlend mode="normal" in="SourceGraphic" in2="effect1_dropShadow_788_800" result="shape"/>
</filter>
<filter id="filter1_d_788_800" x="93.4865" y="25.6079" width="54.08" height="101.184" filterUnits="userSpaceOnUse" color-interpolation-filters="sRGB">
<feFlood flood-opacity="0" result="BackgroundImageFix"/>
<feColorMatrix in="SourceAlpha" type="matrix" values="0 0 0 0 0 0 0 0 0 0 0 0 0 0 0 0 0 0 127 0" result="hardAlpha"/>
<feOffset dy="4"/>
<feGaussianBlur stdDeviation="2"/>
<feComposite in2="hardAlpha" operator="out"/>
<feColorMatrix type="matrix" values="0 0 0 0 1 0 0 0 0 1 0 0 0 0 1 0 0 0 0.25 0"/>
<feBlend mode="normal" in2="BackgroundImageFix" result="effect1_dropShadow_788_800"/>
<feBlend mode="normal" in="SourceGraphic" in2="effect1_dropShadow_788_800" result="shape"/>
</filter>
</defs>
</svg>
